<?xml version="1.0" standalone="no"?>
<!DOCTYPE svg PUBLIC "-//W3C//DTD SVG 20010904//EN"
 "http://www.w3.org/TR/2001/REC-SVG-20010904/DTD/svg10.dtd">
<svg version="1.0" xmlns="http://www.w3.org/2000/svg"
 width="300.000000pt" height="300.000000pt" viewBox="0 0 300.000000 300.000000"
 preserveAspectRatio="xMidYMid meet">
<metadata>
Created by potrace 1.14, written by Peter Selinger 2001-2017
</metadata>
<g transform="translate(0.000000,300.000000) scale(0.100000,-0.100000)"
fill="#000000" stroke="none">
<path d="M1469 2939 c-78 -11 -207 -60 -302 -115 -133 -76 -171 -108 -205
-171 -17 -32 -40 -64 -51 -70 -29 -18 -61 -85 -71 -150 -9 -51 -16 -62 -92
-142 -207 -214 -310 -491 -295 -791 14 -265 118 -510 297 -695 l68 -70 7 -97
c4 -54 12 -101 19 -106 12 -10 174 -83 249 -113 27 -11 75 -22 107 -26 49 -5
61 -9 65 -27 4 -12 24 -78 46 -148 l41 -127 74 -17 c59 -13 113 -15 247 -12
151 3 176 6 207 24 31 18 35 25 38 67 3 45 4 47 42 57 75 20 84 51 53 192
l-16 77 31 30 c18 16 32 34 32 40 0 9 24 16 95 25 20 2 37 -3 53 -18 21 -18
36 -21 116 -21 107 0 134 12 167 77 35 69 36 141 4 243 -18 54 -40 101 -58
122 l-30 34 26 52 c201 403 132 901 -169 1219 -49 51 -54 61 -54 101 0 55 -31
178 -61 243 -13 28 -60 87 -108 137 -65 67 -101 96 -155 122 -115 57 -266 77
-417 54z m251 -70 c132 -28 219 -80 302 -178 l48 -56 -39 -6 c-45 -6 -71 -24
-71 -49 0 -14 7 -16 48 -13 38 4 54 0 82 -19 54 -36 71 -82 79 -216 10 -147
-2 -275 -34 -387 -30 -104 -41 -127 -107 -226 -112 -169 -314 -233 -483 -153
-64 30 -172 129 -222 205 -34 52 -42 36 -11 -24 29 -57 102 -142 152 -179 l39
-28 -32 0 c-18 0 -46 -7 -61 -17 -24 -14 -38 -15 -93 -5 -128 21 -167 57 -227
214 -35 91 -38 137 -10 163 39 35 18 67 -23 35 -56 -44 -136 -10 -176 74 -51
110 -6 224 92 228 50 2 74 -17 94 -73 18 -50 18 -50 53 -44 56 11 60 18 44 83
-18 76 -17 134 2 228 11 52 14 99 10 139 -6 58 -4 64 24 103 39 54 134 125
234 173 72 35 88 39 157 39 43 0 101 -5 129 -11z m-400 -46 c0 -5 -23 -21 -50
-38 -31 -19 -62 -49 -82 -80 -39 -61 -45 -65 -83 -64 -16 1 -47 -6 -67 -15
-53 -23 -51 -1 5 57 48 49 110 88 195 123 60 25 82 29 82 17z m-190 -253 c0
-13 -7 -20 -20 -20 -34 0 -93 -29 -128 -63 -43 -41 -62 -88 -61 -146 1 -27 4
-36 6 -21 3 14 9 29 14 35 5 5 9 14 9 20 0 5 -5 3 -11 -5 -8 -12 -9 -9 -4 10
4 14 9 35 12 48 3 14 11 21 19 18 8 -3 11 0 7 11 -5 12 -1 14 15 8 14 -4 22
-2 22 5 0 6 -4 8 -10 5 -5 -3 -10 -2 -10 3 0 18 29 21 39 4 6 -9 11 -12 11 -6
0 5 -5 15 -12 22 -9 9 -8 12 3 16 8 2 29 9 48 15 67 22 64 34 41 -149 -9 -69
-8 -95 4 -140 8 -30 11 -59 6 -63 -4 -5 -11 4 -15 21 -3 16 -17 39 -29 51 -13
13 -23 30 -21 39 1 9 0 11 -2 4 -3 -8 -13 -10 -31 -5 -38 11 -100 7 -117 -7
-13 -11 -15 -2 -15 68 0 91 10 125 48 166 32 34 116 76 155 76 20 0 27 -5 27
-20z m192 -1087 c59 -6 70 -18 50 -50 -10 -15 -62 -3 -109 27 -34 20 -46 47
-16 36 9 -4 43 -9 75 -13z m518 12 c0 -3 -17 -16 -37 -29 -33 -21 -44 -24 -81
-17 -70 14 -76 31 -11 32 29 1 65 5 79 9 30 10 50 12 50 5z m177 -67 c-3 -8
-6 -5 -6 6 -1 11 2 17 5 13 3 -3 4 -12 1 -19z m-171 -150 l46 -23 -6 -115 c-6
-118 -14 -170 -25 -170 -3 0 -24 42 -46 92 -22 51 -55 116 -72 146 -35 58 -35
72 0 72 12 0 29 5 37 10 19 12 13 14 66 -12z m178 -39 l26 -20 -27 -47 c-41
-73 -125 -203 -128 -200 -1 2 3 37 11 78 7 41 13 98 14 127 0 28 3 58 6 67 9
23 66 20 98 -5z m-264 -163 c20 -44 40 -91 44 -103 7 -22 6 -22 -31 -9 -59 21
-154 65 -201 92 l-43 25 21 37 c12 20 44 54 72 74 l51 38 25 -37 c13 -19 41
-72 62 -117z m639 -140 c13 -14 32 -64 48 -128 27 -103 27 -105 10 -150 -23
-59 -52 -77 -131 -85 -74 -7 -101 11 -34 22 24 4 50 11 58 16 19 11 -5 13
-112 9 -58 -1 -79 1 -82 11 -3 12 -10 68 -29 224 -2 22 26 39 143 83 81 32 98
31 129 -2z m-660 -75 c40 -5 77 -14 81 -21 7 -12 13 -93 30 -420 5 -102 12
-206 15 -231 l6 -46 -75 -13 c-88 -15 -284 -9 -361 12 -49 13 -51 15 -68 68
-42 127 -117 509 -117 596 0 19 9 23 76 34 165 26 303 33 413 21z m353 -51 c9
-30 17 -87 17 -127 1 -70 1 -71 -29 -82 -37 -12 -35 -17 -49 104 -6 50 -14
107 -17 128 l-7 38 34 -3 c31 -3 35 -7 51 -58z m-127 -420 c20 -111 19 -117
-37 -126 l-35 -6 -6 77 c-13 149 -14 146 49 154 6 0 19 -43 29 -99z"/>
<path d="M1452 2589 c-49 -25 -89 -72 -98 -116 -9 -48 10 -46 45 3 35 50 85
77 134 72 34 -3 43 10 25 34 -21 28 -59 30 -106 7z"/>
<path d="M1611 2400 c0 -14 10 -49 24 -78 14 -30 22 -59 19 -64 -4 -6 -29 -8
-65 -4 -55 7 -59 6 -59 -13 0 -27 29 -41 87 -41 87 0 121 51 67 101 -14 13
-37 47 -49 74 -19 40 -24 45 -24 25z"/>
<path d="M2070 2412 c0 -5 7 -32 16 -62 18 -60 12 -70 -43 -70 -17 0 -35 -5
-39 -11 -10 -17 22 -42 55 -41 30 1 91 27 91 40 1 14 -65 151 -72 152 -5 0 -8
-4 -8 -8z"/>
<path d="M1840 2360 c0 -46 44 -132 111 -214 90 -111 89 -122 -15 -165 -105
-44 -166 -40 -166 11 0 10 -4 18 -10 18 -16 0 -12 -76 5 -90 28 -23 131 -5
215 37 71 36 75 40 84 79 8 41 8 42 -68 130 -42 49 -91 117 -108 152 -31 63
-48 78 -48 42z"/>
<path d="M950 2183 c-18 -6 -40 -32 -40 -47 0 -6 5 -5 12 2 22 22 27 13 21
-40 -3 -39 -1 -58 11 -73 14 -19 15 -17 16 31 0 60 18 84 43 59 9 -8 19 -24
22 -35 11 -36 28 -23 22 17 -9 56 -65 101 -107 86z"/>
<path d="M2045 1924 c-22 -13 -60 -30 -85 -38 -40 -12 -45 -16 -48 -46 -3 -33
-3 -33 34 -27 47 8 92 39 127 87 41 58 36 63 -28 24z"/>
<path d="M1610 1900 c0 -5 16 -22 37 -39 37 -31 86 -46 186 -57 l57 -6 0 34 0
35 -101 7 c-56 4 -119 13 -140 20 -22 8 -39 10 -39 6z"/>
<path d="M1570 1835 c0 -19 87 -116 117 -130 66 -32 243 -7 243 34 0 4 -47 8
-105 9 -118 1 -181 21 -210 66 -15 23 -45 36 -45 21z"/>
<path d="M1149 2712 c-47 -34 -66 -62 -43 -62 9 0 18 9 21 20 3 11 8 20 12 20
3 0 20 11 36 25 40 33 19 30 -26 -3z"/>
<path d="M1041 2404 c0 -11 3 -14 6 -6 3 7 2 16 -1 19 -3 4 -6 -2 -5 -13z"/>
<path d="M950 2345 c-10 -12 -10 -15 1 -15 11 0 11 -2 -1 -10 -8 -5 -10 -10
-4 -10 6 0 17 7 24 15 9 11 9 15 1 15 -7 0 -9 5 -6 10 9 15 -1 12 -15 -5z"/>
<path d="M1080 2349 c0 -5 5 -7 10 -4 6 3 10 8 10 11 0 2 -4 4 -10 4 -5 0 -10
-5 -10 -11z"/>
<path d="M1037 2321 c-4 -17 -3 -21 5 -13 5 5 8 16 6 23 -3 8 -7 3 -11 -10z"/>
<path d="M995 2320 c-3 -5 1 -10 9 -10 8 0 18 5 21 10 3 6 -1 10 -9 10 -8 0
-18 -4 -21 -10z"/>
<path d="M1081 2314 c0 -11 3 -14 6 -6 3 7 2 16 -1 19 -3 4 -6 -2 -5 -13z"/>
<path d="M1086 2268 c3 -5 10 -6 15 -3 13 9 11 12 -6 12 -8 0 -12 -4 -9 -9z"/>
<path d="M1813 1233 c-18 -6 -16 -30 2 -37 9 -3 18 1 22 10 7 18 -7 33 -24 27z"/>
<path d="M2234 861 c-23 -10 -45 -24 -48 -30 -13 -20 23 -12 81 19 42 22 50
30 32 30 -13 0 -43 -9 -65 -19z"/>
<path d="M2215 790 c-7 -12 78 -12 115 0 18 6 7 8 -42 9 -37 1 -70 -3 -73 -9z"/>
<path d="M2215 720 c-4 -6 24 -10 77 -9 56 0 76 3 63 9 -28 12 -133 12 -140 0z"/>
</g>
</svg>
